<?xml version="1.0" encoding="utf-8"?>
<!-- Generator: Adobe Illustrator 18.1.1, SVG Export Plug-In . SVG Version: 6.00 Build 0)  -->
<!DOCTYPE svg PUBLIC "-//W3C//DTD SVG 1.1//EN" "http://www.w3.org/Graphics/SVG/1.1/DTD/svg11.dtd">
<svg version="1.1" id="Layer_1" xmlns="http://www.w3.org/2000/svg" xmlns:xlink="http://www.w3.org/1999/xlink" x="0px" y="0px"
	 viewBox="0 0 784.7 485.7" style="enable-background:new 0 0 784.7 485.7;" xml:space="preserve">
<style type="text/css">
	.st0{fill:#BC0F39;}
	.st1{fill:#EFC5D4;}
</style>
<g>
	<path class="st0" d="M2.6,24.8c0,0,42,22,23,70s34,40,34,40s94-54,122-24s182,24.5,182,24.5s113-11.5,136-37.5c23-26,134,46,143,29
		s90-42,118-31s36-49,0-56s-51-25-51-25s-48-22-69,1s-153-8-153-8s-136-10-166,10s-138-9-138-9S-25.3-19.2,2.6,24.8z"/>
	<path class="st1" d="M36.6,41.8c0,0-12,24.1,33,26s108-36,143-7s167,2,167,2s64-17,81-11s149,42,153,28s112-17.4,112-17.4
		s20-28.6-12-25.6s-105,7-105,7s-104-29-106-19s-110.2,3-110.2,3l-77.8,18c0,0-80-17-109-13s-65-6-101-5S36.6,41.8,36.6,41.8z"/>
</g>
<g>
	<path class="st0" d="M2.6,199.8c0,0,42,22,23,70s34,40,34,40s94-54,122-24s182,24.5,182,24.5s113-11.5,136-37.5
		c23-26,134,46,143,29s90-42,118-31s36-49,0-56s-51-25-51-25s-48-22-69,1s-153-8-153-8s-136-10-166,10s-138-9-138-9
		S-25.3,155.8,2.6,199.8z"/>
	<path class="st1" d="M36.6,216.8c0,0-12,24.1,33,26c45,2,108-36,143-7s167,2,167,2s64-17,81-11s149,42,153,28s112-17.4,112-17.4
		s20-28.6-12-25.6s-105,7-105,7s-104-29-106-19s-110.2,3-110.2,3l-77.8,18c0,0-80-17-109-13s-65-6-101-5S36.6,216.8,36.6,216.8z"/>
</g>
<g>
	<path class="st0" d="M2.6,374.8c0,0,42,22,23,70s34,40,34,40s94-54,122-24s182,24.5,182,24.5s113-11.5,136-37.5
		c23-26,134,46,143,29s90-42,118-31s36-49,0-56s-51-25-51-25s-48-22-69,1s-153-8-153-8s-136-10-166,10s-138-9-138-9
		S-25.3,330.8,2.6,374.8z"/>
	<path class="st1" d="M36.6,391.8c0,0-12,24.1,33,26c45,2,108-36,143-7s167,2,167,2s64-17,81-11s149,42,153,28s112-17.4,112-17.4
		s20-28.6-12-25.6s-105,7-105,7s-104-29-106-19s-110.2,3-110.2,3l-77.8,18c0,0-80-17-109-13s-65-6-101-5S36.6,391.8,36.6,391.8z"/>
</g>
</svg>
