<?xml version="1.0" encoding="utf-8"?>
<!-- Generator: Adobe Illustrator 18.1.1, SVG Export Plug-In . SVG Version: 6.00 Build 0)  -->
<!DOCTYPE svg PUBLIC "-//W3C//DTD SVG 1.1//EN" "http://www.w3.org/Graphics/SVG/1.1/DTD/svg11.dtd">
<svg version="1.1" id="Layer_1" xmlns="http://www.w3.org/2000/svg" xmlns:xlink="http://www.w3.org/1999/xlink" x="0px" y="0px"
	 viewBox="0 0 497.4 497.4" style="enable-background:new 0 0 497.4 497.4;" xml:space="preserve">
<style type="text/css">
	.st0{fill:#29ABE2;}
	.st1{fill:#0082FF;}
	.st2{fill:#FBB03B;}
	.st3{fill:#C69C6D;}
	.st4{fill:#B3B3B3;}
</style>
<path class="st0" d="M10.8,202.7h476.8c0,0,9.1,243-238.4,243S10.8,202.7,10.8,202.7z"/>
<path class="st1" d="M487.6,202.9c0,0,9.1,243-238.4,243c-34.5,0-52.6-1.6-70.3-7.6C106.8,413.6,487.6,202.9,487.6,202.9z"/>
<ellipse class="st2" cx="249" cy="202.4" rx="238.6" ry="27"/>
<path class="st3" d="M463.8,214.2c0,0-96.2,19.3-214.8,19.3S34.2,214.8,34.2,214.8s96.2-23.1,214.8-23.1S463.8,214.2,463.8,214.2z"
	/>
<path class="st4" d="M130.3,218.4L97.7,95.1c0,0,2.9-45.6,27.3-7.2l32.6,123.3L130.3,218.4z"/>
</svg>
