<?xml version="1.0" encoding="utf-8"?>
<!-- Generator: Adobe Illustrator 18.1.1, SVG Export Plug-In . SVG Version: 6.00 Build 0)  -->
<!DOCTYPE svg PUBLIC "-//W3C//DTD SVG 1.1//EN" "http://www.w3.org/Graphics/SVG/1.1/DTD/svg11.dtd">
<svg version="1.1" id="Layer_1" xmlns="http://www.w3.org/2000/svg" xmlns:xlink="http://www.w3.org/1999/xlink" x="0px" y="0px"
	 viewBox="0 0 497.4 497.4" style="enable-background:new 0 0 497.4 497.4;" xml:space="preserve">
<style type="text/css">
	.st0{fill:#FF6E2E;}
	.st1{fill:#8C6239;}
	.st2{fill:#E6E6E6;}
</style>
<path class="st0" d="M366.3,228.8l-43.6-0.1v-23.9c0-19-198-19-198,0v254c0,43,198,43,198,0v-37.5l43,0.1
	c16.9,0,30.6-13.8,30.7-30.7l0.4-131C396.9,242.7,383.2,228.8,366.3,228.8z M373.7,372.1c0,16.9-13.4,31.6-30.4,31.6h-20.6v-154
	h20.6c16.9,0,30.4,14.3,30.4,31.2V372.1z"/>
<ellipse class="st1" cx="225.6" cy="208.9" rx="77" ry="7.2"/>
<path class="st2" d="M179.2,153.9c0,0-23.1-8.9-9.8-36.6c7-14.5-12-16-10.5-32.9c1.5-16.8,20.5-21.8,20.5-21.8s-10,8.7-8.9,20.9
	c3.5,11.6,13.8,11.8,14.8,28.8c-2.1,15.1-6.8,10.9-8,20.5C176.2,142.3,179.2,153.9,179.2,153.9z"/>
<path class="st2" d="M264.3,182.7c0,0-20.6-13.7-1.6-37.9c9.9-12.6-8.3-18.2-3.1-34.4c5.1-16.1,24.7-16.9,24.7-16.9
	s-11.7,6.4-13.2,18.5c0.9,12,11,14.5,8.3,31.3c-5.3,14.3-9,9.2-12.2,18.3C263.9,170.8,264.3,182.7,264.3,182.7z"/>
<path class="st2" d="M232.8,180.7c0,0-36.4-22.3-34.7-43.7c1.7-21.4,24.2-29.6,26.8-47.6c2.6-18-20.8-25.6-13.1-48
	c7.3-21,37.3-34.3,37.3-34.3S234.4,27,230.2,46.5c-4.1,19.3,22.3,21.9,21.4,37.7s-24.2,31.7-26.8,49.7
	C222.3,152,232.8,180.7,232.8,180.7z"/>
</svg>
