<?xml version="1.0" encoding="utf-8"?>
<!-- Generator: Adobe Illustrator 18.1.1, SVG Export Plug-In . SVG Version: 6.00 Build 0)  -->
<!DOCTYPE svg PUBLIC "-//W3C//DTD SVG 1.1//EN" "http://www.w3.org/Graphics/SVG/1.1/DTD/svg11.dtd">
<svg version="1.1" id="Layer_1" xmlns="http://www.w3.org/2000/svg" xmlns:xlink="http://www.w3.org/1999/xlink" x="0px" y="0px"
	 viewBox="0 0 498 422" style="enable-background:new 0 0 498 422;" xml:space="preserve">
<style type="text/css">
	.st0{fill:#FFFFFF;}
	.st1{fill:#F4D760;}
	.st2{fill:#CEB341;}
</style>
<path class="st0" d="M339.8,91.3c3.5-2,8.9-10.1,24.6-0.7c9,5.4,6.7,0.8,17.8,3.2c17.7,3.9,18.8,8.7,22.8,21.5
	c4.4,14.1,3.5,25.8-18.7,22.7s-14.1,10.7-34.8,0.7c-19.3-9.3-17.3-9.2-23.7-9.8c-8.8-0.9-23.6-21.1,0.2-31.4
	C330.7,96.3,336.7,93.1,339.8,91.3z"/>
<ellipse class="st1" cx="362.7" cy="112.2" rx="17.8" ry="10.8"/>
<path class="st2" d="M374.7,116.8l4.9-1.4c0,0-2.7,4.6-7.2,5.9c0,0-9.8,4.8-21.1-0.6c0,0-10.7-4.8-4.6-13.2
	C346.8,107.4,354.3,121.8,374.7,116.8z"/>
</svg>
