<?xml version="1.0" encoding="utf-8"?>
<!-- Generator: Adobe Illustrator 18.1.1, SVG Export Plug-In . SVG Version: 6.00 Build 0)  -->
<!DOCTYPE svg PUBLIC "-//W3C//DTD SVG 1.1//EN" "http://www.w3.org/Graphics/SVG/1.1/DTD/svg11.dtd">
<svg version="1.1" id="Layer_1" xmlns="http://www.w3.org/2000/svg" xmlns:xlink="http://www.w3.org/1999/xlink" x="0px" y="0px"
	 viewBox="0 0 183 124.5" style="enable-background:new 0 0 183 124.5;" xml:space="preserve">
<style type="text/css">
	.st0{fill:#FFFFFF;}
	.st1{fill:#F4D760;}
	.st2{fill:#CEB341;}
</style>
<path class="st0" d="M54.2,23.2c6.3-3.6,16.1-18.3,44.2-1.3c16.2,9.8,12.2,1.4,32.1,5.8c31.9,7,33.9,15.6,41.1,38.7
	c7.9,25.4,6.3,46.5-33.6,40.8c-39.9-5.7-25.4,19.2-62.7,1.2C40.5,91.6,44.1,91.9,32.7,90.7c-15.8-1.7-42.6-38,0.5-56.6
	C37.8,32.1,48.7,26.4,54.2,23.2z"/>
<ellipse class="st1" cx="95.4" cy="60.9" rx="32" ry="19.5"/>
<path class="st2" d="M117.2,69l8.9-2.6c0,0-4.9,8.3-13,10.7c0,0-17,7.2-38-1.2c0,0-19.4-8.6-8.3-23.9C66.8,52.1,80.4,78.2,117.2,69z
	"/>
</svg>
