<?xml version="1.0" encoding="utf-8"?>
<!-- Generator: Adobe Illustrator 18.1.1, SVG Export Plug-In . SVG Version: 6.00 Build 0)  -->
<!DOCTYPE svg PUBLIC "-//W3C//DTD SVG 1.1//EN" "http://www.w3.org/Graphics/SVG/1.1/DTD/svg11.dtd">
<svg version="1.1" id="Layer_1" xmlns="http://www.w3.org/2000/svg" xmlns:xlink="http://www.w3.org/1999/xlink" x="0px" y="0px"
	 viewBox="0 0 497.4 497.4" style="enable-background:new 0 0 497.4 497.4;" xml:space="preserve">
<style type="text/css">
	.st0{fill:#4D4D4D;}
	.st1{fill:#333333;}
	.st2{fill:#FFFFFF;}
	.st3{fill:#F4D760;}
	.st4{fill:#CEB341;}
</style>
<path class="st0" d="M489.5,187.1c0,96.3-78.1,174.4-174.4,174.4c-40.2,0-77.3-13.6-106.8-36.5L42.6,490.7
	c-41.7,0-30.1-30.1-30.1-30.1l165.7-165.7c-23.4-29.7-37.3-67.2-37.3-107.9c0-96.3,78.1-174.4,174.4-174.4
	C411.5,12.7,489.5,90.8,489.5,187.1z"/>
<circle class="st1" cx="318.1" cy="186.1" r="133.3"/>
<path class="st2" d="M287.2,87.2c6.3-3.6,16.1-18.3,44.2-1.3c16.2,9.8,12.2,1.4,32.1,5.8c31.9,7,33.9,15.6,41.1,38.7
	c7.9,25.4,6.3,46.5-33.6,40.8s-25.4,19.2-62.7,1.2c-34.8-16.8-31.2-16.5-42.6-17.7c-15.8-1.7-42.6-38,0.5-56.6
	C270.8,96.1,281.7,90.4,287.2,87.2z"/>
<ellipse class="st3" cx="328.4" cy="124.9" rx="32" ry="19.5"/>
<path class="st4" d="M350.2,133l8.9-2.6c0,0-4.9,8.3-13,10.7c0,0-17,7.2-38-1.2c0,0-19.4-8.6-8.3-23.9
	C299.8,116.1,313.4,142.2,350.2,133z"/>
</svg>
