<?xml version="1.0" encoding="utf-8"?>
<!-- Generator: Adobe Illustrator 18.1.1, SVG Export Plug-In . SVG Version: 6.00 Build 0)  -->
<!DOCTYPE svg PUBLIC "-//W3C//DTD SVG 1.1//EN" "http://www.w3.org/Graphics/SVG/1.1/DTD/svg11.dtd">
<svg version="1.1" id="Layer_1" xmlns="http://www.w3.org/2000/svg" xmlns:xlink="http://www.w3.org/1999/xlink" x="0px" y="0px"
	 viewBox="0 0 498 422" style="enable-background:new 0 0 498 422;" xml:space="preserve">
<style type="text/css">
	.st0{fill:#29ABE2;}
	.st1{fill:#0082FF;}
	.st2{fill:#FBB03B;}
	.st3{fill:#C69C6D;}
</style>
<path class="st0" d="M38.9,149.6h421.2c0,0,8.1,258.7-210.6,258.7S38.9,149.6,38.9,149.6z"/>
<path class="st1" d="M459,177.2c0,0,8.1,230.6-210.6,230.6c-30.5,0-46.5-1.5-62.1-7.2C122.6,377.1,459,177.2,459,177.2z"/>
<ellipse class="st2" cx="249.3" cy="153.1" rx="210.8" ry="57.9"/>
<path class="st3" d="M439,178.9c0,0-76.6,44-189.7,44c-104.8,0-189.7-44.5-189.7-44.5s85-50.7,189.7-50.7S439,178.9,439,178.9z"/>
</svg>
