<?xml version="1.0" encoding="utf-8"?>
<!-- Generator: Adobe Illustrator 18.1.1, SVG Export Plug-In . SVG Version: 6.00 Build 0)  -->
<!DOCTYPE svg PUBLIC "-//W3C//DTD SVG 1.1//EN" "http://www.w3.org/Graphics/SVG/1.1/DTD/svg11.dtd">
<svg version="1.1" id="Layer_1" xmlns="http://www.w3.org/2000/svg" xmlns:xlink="http://www.w3.org/1999/xlink" x="0px" y="0px"
	 viewBox="0 0 498 422" style="enable-background:new 0 0 498 422;" xml:space="preserve">
<style type="text/css">
	.st0{fill:#E6E6E6;}
</style>
<path class="st0" d="M211,122.9c0,0-17.4-6.7-7.4-27.7c5.3-10.9-9.1-12.1-7.9-24.8c1.2-12.7,15.5-16.5,15.5-16.5s-7.6,6.6-6.7,15.8
	c2.6,8.7,10.5,8.9,11.2,21.7c-1.6,11.4-5.1,8.2-6,15.5C208.8,114.2,211,122.9,211,122.9z"/>
<path class="st0" d="M275.3,144.7c0,0-15.6-10.3-1.2-28.6c7.5-9.5-6.2-13.8-2.4-26c3.9-12.1,18.6-12.7,18.6-12.7s-8.8,4.8-10,14
	c0.7,9.1,8.3,11,6.3,23.6c-4,10.8-6.8,6.9-9.2,13.8C274.9,135.6,275.3,144.7,275.3,144.7z"/>
<path class="st0" d="M251.5,143.1c0,0-27.5-16.8-26.2-33s18.3-22.3,20.2-35.9c1.9-13.6-15.7-19.4-9.9-36.3
	c5.5-15.9,28.2-25.9,28.2-25.9s-11.1,15-14.2,29.8c-3.1,14.6,16.8,16.5,16.2,28.5s-18.3,24-20.2,37.5
	C243.6,121.4,251.5,143.1,251.5,143.1z"/>
</svg>
