<?xml version="1.0" encoding="utf-8"?>
<!-- Generator: Adobe Illustrator 18.1.1, SVG Export Plug-In . SVG Version: 6.00 Build 0)  -->
<!DOCTYPE svg PUBLIC "-//W3C//DTD SVG 1.1//EN" "http://www.w3.org/Graphics/SVG/1.1/DTD/svg11.dtd">
<svg version="1.1" id="Layer_1" xmlns="http://www.w3.org/2000/svg" xmlns:xlink="http://www.w3.org/1999/xlink" x="0px" y="0px"
	 viewBox="0 0 175.6 226.9" style="enable-background:new 0 0 175.6 226.9;" xml:space="preserve">
<style type="text/css">
	.st0{fill:#E6E6E6;}
</style>
<path class="st0" d="M38,184.5c0,0-27.7-10.7-11.7-43.9c8.4-17.4-14.4-19.2-12.5-39.5c1.8-20.1,24.6-26.1,24.6-26.1
	s-12,10.5-10.7,25.1c4.2,13.8,16.6,14.2,17.8,34.5c-2.5,18.1-8.1,13.1-9.5,24.6C34.5,170.7,38,184.5,38,184.5z"/>
<path class="st0" d="M140,219.1c0,0-24.7-16.4-2-45.4c11.9-15.2-9.9-21.8-3.7-41.2c6.1-19.3,29.6-20.2,29.6-20.2s-14,7.6-15.9,22.2
	c1.1,14.4,13.2,17.4,10,37.5c-6.4,17.1-10.7,11-14.6,21.9C139.5,204.8,140,219.1,140,219.1z"/>
<path class="st0" d="M102.3,216.6c0,0-43.7-26.7-41.6-52.4c2.1-25.7,29-35.5,32.1-57c3.1-21.6-25-30.7-15.7-57.6
	c8.7-25.2,44.7-41.1,44.7-41.1s-17.6,23.9-22.6,47.3C94.3,78.9,126,82,124.9,101c-1,19-29.1,38-32.1,59.6
	C89.7,182.2,102.3,216.6,102.3,216.6z"/>
</svg>
