<?xml version="1.0" encoding="utf-8"?>
<!-- Generator: Adobe Illustrator 18.1.1, SVG Export Plug-In . SVG Version: 6.00 Build 0)  -->
<!DOCTYPE svg PUBLIC "-//W3C//DTD SVG 1.1//EN" "http://www.w3.org/Graphics/SVG/1.1/DTD/svg11.dtd">
<svg version="1.1" id="Layer_1" xmlns="http://www.w3.org/2000/svg" xmlns:xlink="http://www.w3.org/1999/xlink" x="0px" y="0px"
	 viewBox="0 0 724 560" style="enable-background:new 0 0 724 560;" xml:space="preserve">
<style type="text/css">
	.st0{fill:#F2F2F2;}
	.st1{fill:none;stroke:#000000;stroke-width:7;stroke-miterlimit:10;}
	.st2{fill:#E6E6E6;}
	.st3{fill:#CCCCCC;}
	.st4{fill:#999999;}
</style>
<g id="Toaster">
	<path class="st0" d="M92.4,170.9H48.6c-18.2,0-33-14.8-33-33V41c0-18.2,14.8-33,33-33h43.8c18.2,0,33,14.8,33,33v96.9
		C125.4,156.2,110.6,170.9,92.4,170.9z"/>
	<g id="Plug">
		<path class="st1" d="M68.5,111.5c0,0,2.6,107.5-44,187.5c-47.5,81.7,108.6,59.5,129.3,121.3S53,498.1,76.3,529.2
			s124.1,6.5,36.2-102.2s54.3-128,54.3-128"/>
		<path d="M79.2,132.5H61.1c-6.6,0-12-5.4-12-12v-7c0-6.6,5.4-12,12-12h18.1c6.6,0,12,5.4,12,12v7C91.2,127.1,85.8,132.5,79.2,132.5
			z"/>
	</g>
	<path class="st0" d="M702.6,181.6c0.4-4.1,0.6-8.2,0.6-12.4c0-71-57.5-128.5-128.5-128.5c-5.8,0-11.5,0.4-17.1,1.1l-256.6,0
		c-5.7-0.8-11.5-1.2-17.3-1.2c-71,0-128.5,57.5-128.5,128.5c0,4.4,0.2,8.8,0.7,13.1c-0.6,3.2-1,6.3-1,9.3c0,1.7,0.2,3.4,0.2,5.1
		v140.1c0,33.7,27.3,60.2,61,60.2h426.5c33.7,0,60.6-26.5,60.6-60.2V196.7c0-1.7,0.4-3.4,0.4-5.1C703.4,188.4,703.2,185,702.6,181.6
		z"/>
	<path class="st2" d="M702.6,181.6c0.4-4.1,0.6-8.2,0.6-12.4c0-71-50.8-104.4-71.3-115.2C626.8,51.2,182.3,397,216,397h426.5
		c33.7,0,60.6-26.5,60.6-60.2V196.7c0-1.7,0.4-3.4,0.4-5.1C703.4,188.4,703.2,185,702.6,181.6z"/>
	<path class="st3" d="M251,68.8v37.3c0,0-52.6,10.8-81.5,133.4C169.5,239.5,164,123.4,251,68.8z"/>
	<rect x="287.5" y="40.5" class="st4" width="283.6" height="27.2"/>
</g>
<g>
</g>
<g>
</g>
<g>
</g>
<g>
</g>
<g>
</g>
<g>
</g>
<g>
</g>
<g>
</g>
<g>
</g>
<g>
</g>
<g>
</g>
<g>
</g>
<g>
</g>
<g>
</g>
<g>
</g>
</svg>
