<?xml version="1.0" encoding="utf-8"?>
<!-- Generator: Adobe Illustrator 18.1.1, SVG Export Plug-In . SVG Version: 6.00 Build 0)  -->
<!DOCTYPE svg PUBLIC "-//W3C//DTD SVG 1.1//EN" "http://www.w3.org/Graphics/SVG/1.1/DTD/svg11.dtd">
<svg version="1.1" id="Layer_1" xmlns="http://www.w3.org/2000/svg" xmlns:xlink="http://www.w3.org/1999/xlink" x="0px" y="0px"
	 viewBox="0 0 1280 800" style="enable-background:new 0 0 1280 800;" xml:space="preserve">
<style type="text/css">
	.st0{fill:#76DCF4;}
	.st1{fill:#00A6CE;}
	.st2{display:none;}
	.st3{display:inline;fill:#F2F2F2;}
	.st4{display:inline;}
	.st5{fill:none;stroke:#000000;stroke-width:7;stroke-miterlimit:10;}
	.st6{display:inline;fill:#E6E6E6;}
	.st7{display:inline;fill:#CCCCCC;}
	.st8{display:inline;fill:#999999;}
	.st9{fill:#B66F00;}
	.st10{fill:#FFCF5D;}
</style>
<g id="Background">
	<rect x="-5" y="-5" class="st0" width="1290" height="810"/>
	<rect x="-5" y="517" class="st1" width="1290" height="288"/>
</g>
<g id="Toaster" class="st2">
	<path class="st3" d="M148,457h-18.9c-18.2,0-33-14.8-33-33v-60c0-18.2,14.8-33,33-33H148c18.2,0,33,14.8,33,33v60
		C181,442.2,166.2,457,148,457z"/>
	<g id="Plug" class="st4">
		<path class="st5" d="M137,411c0,0,2,83.1-34,145c-36.7,63.1,84,46,100,93.8S125,710,143,734s96,5,28-79s42-99,42-99"/>
		<path d="M142.5,427.3H134c-6.6,0-12-5.4-12-12v0c0-6.6,5.4-12,12-12h8.5c6.6,0,12,5.4,12,12v0
			C154.5,421.9,149.1,427.3,142.5,427.3z"/>
	</g>
	<path class="st3" d="M627.3,465.2c0.3-3.2,0.5-6.4,0.5-9.6c0-54.9-44.5-99.4-99.4-99.4c-4.5,0-8.9,0.3-13.2,0.9l-198.4,0
		c-4.4-0.6-8.9-0.9-13.4-0.9c-54.9,0-99.4,44.5-99.4,99.4c0,3.4,0.2,6.8,0.5,10.2c-0.5,2.4-0.7,4.9-0.7,7.2c0,1.3,0.2,2.6,0.2,3.9
		v108.3c0,26.1,21,46.8,47,46.8h329.8c26.1,0,47.2-20.7,47.2-46.8V476.9c0-1.3,0.1-2.6,0.1-3.9C628.1,470.5,627.8,467.9,627.3,465.2
		z"/>
	<path class="st6" d="M627.3,465.2c0.3-3.2,0.5-6.4,0.5-9.6c0-54.9-39.3-80.6-55.1-89C568.7,364.5,225,632,251,632h329.8
		c26.1,0,47.2-20.7,47.2-46.8V476.9c0-1.3,0.1-2.6,0.1-3.9C628.1,470.5,627.8,467.9,627.3,465.2z"/>
	<path class="st7" d="M278,378v28.8c0,0-40.7,8.3-63,103.2C215,510,210.5,420.3,278,378z"/>
	<rect x="306.3" y="356.1" class="st8" width="219.3" height="21"/>
</g>
<path id="Handle" class="st2" d="M641.5,467h-28c-4.7,0-8.5-3.8-8.5-8.5v-4c0-4.7,3.8-8.5,8.5-8.5h28c4.7,0,8.5,3.8,8.5,8.5v4
	C650,463.2,646.2,467,641.5,467z"/>
<g id="Bread_1_" class="st2">
	<g class="st4">
		<path class="st9" d="M452.6,422.1h-99.4c-19,0-34.3-15.4-34.3-34.3v-99.4c0-19,15.4-34.3,34.3-34.3h99.4c19,0,34.3,15.4,34.3,34.3
			v99.4C487,406.7,471.6,422.1,452.6,422.1z"/>
		<ellipse class="st9" cx="403" cy="265.7" rx="96.4" ry="33.9"/>
	</g>
	<g id="Bread" class="st4">
		<path class="st10" d="M465.6,425.1h-99.4c-19,0-34.3-15.4-34.3-34.3v-99.4c0-19,15.4-34.3,34.3-34.3h99.4
			c19,0,34.3,15.4,34.3,34.3v99.4C500,409.7,484.6,425.1,465.6,425.1z"/>
		<ellipse class="st10" cx="416" cy="268.7" rx="96.4" ry="33.9"/>
	</g>
</g>
<g id="Plate" class="st2">
	<ellipse class="st3" cx="937.7" cy="636.1" rx="217.2" ry="65.2"/>
	<ellipse class="st7" cx="937.7" cy="634.1" rx="124.8" ry="37.4"/>
	<ellipse class="st6" cx="937.7" cy="638.1" rx="124.8" ry="37.4"/>
</g>
<g>
</g>
<g>
</g>
<g>
</g>
<g>
</g>
<g>
</g>
<g>
</g>
<g>
</g>
<g>
</g>
<g>
</g>
<g>
</g>
<g>
</g>
<g>
</g>
<g>
</g>
<g>
</g>
<g>
</g>
</svg>
