<?xml version="1.0" encoding="utf-8"?>
<!-- Generator: Adobe Illustrator 18.1.1, SVG Export Plug-In . SVG Version: 6.00 Build 0)  -->
<!DOCTYPE svg PUBLIC "-//W3C//DTD SVG 1.1//EN" "http://www.w3.org/Graphics/SVG/1.1/DTD/svg11.dtd">
<svg version="1.1" id="Layer_1" xmlns="http://www.w3.org/2000/svg" xmlns:xlink="http://www.w3.org/1999/xlink" x="0px" y="0px"
	 viewBox="0 0 590 407" style="enable-background:new 0 0 590 407;" xml:space="preserve">
<style type="text/css">
	.st0{display:none;fill:#F2F2F2;}
	.st1{display:none;}
	.st2{display:inline;fill:none;stroke:#000000;stroke-width:7;stroke-miterlimit:10;}
	.st3{display:inline;}
	.st4{fill:#F2F2F2;}
	.st5{fill:#E6E6E6;}
	.st6{fill:#CCCCCC;}
	.st7{fill:#999999;}
</style>
<g id="Toaster">
	<path class="st0" d="M-41.6,158.9h-43.8c-18.2,0-33-14.8-33-33V29c0-18.2,14.8-33,33-33h43.8c18.2,0,33,14.8,33,33v96.9
		C-8.6,144.2-23.4,158.9-41.6,158.9z"/>
	<g id="Plug" class="st1">
		<path class="st2" d="M-65.5,99.5c0,0,2.6,107.5-44,187.5C-157,368.6-0.8,346.5,19.9,408.3S-81,486.1-57.7,517.2
			S66.4,523.6-21.5,415s54.3-128,54.3-128"/>
		<path class="st3" d="M-54.8,120.5h-18.1c-6.6,0-12-5.4-12-12v-7c0-6.6,5.4-12,12-12h18.1c6.6,0,12,5.4,12,12v7
			C-42.8,115.1-48.2,120.5-54.8,120.5z"/>
	</g>
	<path class="st4" d="M568.6,169.6c0.4-4.1,0.6-8.2,0.6-12.4c0-71-57.5-128.5-128.5-128.5c-5.8,0-11.5,0.4-17.1,1.1l-256.6,0
		c-5.7-0.8-11.5-1.2-17.3-1.2c-71,0-128.5,57.5-128.5,128.5c0,4.4,0.2,8.8,0.7,13.1c-0.6,3.2-1,6.3-1,9.3c0,1.7,0.2,3.4,0.2,5.1
		v140.1c0,33.7,27.3,60.2,61,60.2h426.5c33.7,0,60.6-26.5,60.6-60.2V184.7c0-1.7,0.4-3.4,0.4-5.1C569.4,176.4,569.2,173,568.6,169.6
		z"/>
	<path class="st5" d="M568.6,169.6c0.4-4.1,0.6-8.2,0.6-12.4c0-71-50.8-104.4-71.3-115.2C492.8,39.2,48.3,385,82,385h426.5
		c33.7,0,60.6-26.5,60.6-60.2V184.7c0-1.7,0.4-3.4,0.4-5.1C569.4,176.4,569.2,173,568.6,169.6z"/>
	<path class="st6" d="M117,56.8v37.3c0,0-52.6,10.8-81.5,133.4C35.5,227.5,30,111.4,117,56.8z"/>
	<rect x="153.5" y="28.5" class="st7" width="283.6" height="27.2"/>
</g>
<g>
</g>
<g>
</g>
<g>
</g>
<g>
</g>
<g>
</g>
<g>
</g>
<g>
</g>
<g>
</g>
<g>
</g>
<g>
</g>
<g>
</g>
<g>
</g>
<g>
</g>
<g>
</g>
<g>
</g>
</svg>
