<?xml version="1.0" encoding="utf-8"?>
<!-- Generator: Adobe Illustrator 18.1.1, SVG Export Plug-In . SVG Version: 6.00 Build 0)  -->
<!DOCTYPE svg PUBLIC "-//W3C//DTD SVG 1.1//EN" "http://www.w3.org/Graphics/SVG/1.1/DTD/svg11.dtd">
<svg version="1.1" id="Layer_1" xmlns="http://www.w3.org/2000/svg" xmlns:xlink="http://www.w3.org/1999/xlink" x="0px" y="0px"
	 viewBox="0 0 596 560" style="enable-background:new 0 0 596 560;" xml:space="preserve">
<style type="text/css">
	.st0{fill:#B66F00;}
	.st1{fill:#FFCF5D;}
</style>
<g id="Bread_1_">
	<g>
		<path class="st0" d="M482,543.7H78.4c-19,0-34.3-15.4-34.3-34.3V105.7c0-19,15.4-34.3,34.3-34.3H482c19,0,34.3,15.4,34.3,34.3
			v403.6C516.3,528.3,500.9,543.7,482,543.7z"/>
		<ellipse class="st0" cx="280.2" cy="104.1" rx="270.9" ry="95.3"/>
	</g>
	<g id="Bread">
		<path class="st1" d="M518.5,552.1H114.9c-19,0-34.3-15.4-34.3-34.3V114.2c0-19,15.4-34.3,34.3-34.3h403.6
			c19,0,34.3,15.4,34.3,34.3v403.6C552.8,536.7,537.5,552.1,518.5,552.1z"/>
		<ellipse class="st1" cx="316.7" cy="112.6" rx="270.9" ry="95.3"/>
	</g>
</g>
<g>
</g>
<g>
</g>
<g>
</g>
<g>
</g>
<g>
</g>
<g>
</g>
<g>
</g>
<g>
</g>
<g>
</g>
<g>
</g>
<g>
</g>
<g>
</g>
<g>
</g>
<g>
</g>
<g>
</g>
</svg>
